<svg xmlns="http://www.w3.org/2000/svg" width="149" height="34" viewBox="0 0 149 34" fill="none"><path d="M0 30.4834L10.4647 19.8649H0V14.2329H10.4647V3.5166H16.9593V13.4703L27.5203 3.5166H36L25.7281 13.9396H36V20.5493H25.6317V30.4834H18.848V20.1582L9.05782 30.4834H0Z" fill="#14A077"></path><path d="M49.17 29V25.25H50.46C51.42 25.25 52.18 24.98 52.74 24.44C53.32 23.88 53.61 23.14 53.61 22.22V6.65H57.72V22.07C57.72 23.45 57.42 24.66 56.82 25.7C56.24 26.74 55.4 27.55 54.3 28.13C53.22 28.71 51.94 29 50.46 29H49.17ZM69.5873 29.36C67.9873 29.36 66.5273 28.99 65.2073 28.25C63.9073 27.51 62.8673 26.5 62.0873 25.22C61.3273 23.94 60.9473 22.48 60.9473 20.84C60.9473 19.2 61.3273 17.74 62.0873 16.46C62.8673 15.18 63.9073 14.17 65.2073 13.43C66.5073 12.69 67.9673 12.32 69.5873 12.32C71.1873 12.32 72.6373 12.69 73.9373 13.43C75.2373 14.17 76.2673 15.18 77.0273 16.46C77.8073 17.72 78.1973 19.18 78.1973 20.84C78.1973 22.48 77.8073 23.94 77.0273 25.22C76.2473 26.5 75.2073 27.51 73.9073 28.25C72.6073 28.99 71.1673 29.36 69.5873 29.36ZM69.5873 25.76C70.4673 25.76 71.2373 25.55 71.8973 25.13C72.5773 24.71 73.1073 24.13 73.4873 23.39C73.8873 22.63 74.0873 21.78 74.0873 20.84C74.0873 19.88 73.8873 19.04 73.4873 18.32C73.1073 17.58 72.5773 17 71.8973 16.58C71.2373 16.14 70.4673 15.92 69.5873 15.92C68.6873 15.92 67.8973 16.14 67.2173 16.58C66.5373 17 65.9973 17.58 65.5973 18.32C65.2173 19.04 65.0273 19.88 65.0273 20.84C65.0273 21.78 65.2173 22.63 65.5973 23.39C65.9973 24.13 66.5373 24.71 67.2173 25.13C67.8973 25.55 68.6873 25.76 69.5873 25.76ZM90.0877 29.36C88.9077 29.36 87.8177 29.13 86.8177 28.67C85.8377 28.19 85.0577 27.51 84.4777 26.63L84.8677 25.85V29H81.1777V6.29H85.1077V15.92L84.5077 15.11C85.0677 14.23 85.8277 13.55 86.7877 13.07C87.7477 12.57 88.8577 12.32 90.1177 12.32C91.6577 12.32 93.0477 12.7 94.2877 13.46C95.5277 14.22 96.5077 15.24 97.2277 16.52C97.9677 17.8 98.3377 19.24 98.3377 20.84C98.3377 22.42 97.9777 23.86 97.2577 25.16C96.5377 26.46 95.5577 27.49 94.3177 28.25C93.0777 28.99 91.6677 29.36 90.0877 29.36ZM89.6377 25.76C90.5377 25.76 91.3377 25.55 92.0377 25.13C92.7377 24.71 93.2777 24.13 93.6577 23.39C94.0577 22.65 94.2577 21.8 94.2577 20.84C94.2577 19.88 94.0577 19.04 93.6577 18.32C93.2777 17.58 92.7377 17 92.0377 16.58C91.3377 16.14 90.5377 15.92 89.6377 15.92C88.7777 15.92 87.9977 16.13 87.2977 16.55C86.6177 16.97 86.0777 17.56 85.6777 18.32C85.2977 19.06 85.1077 19.9 85.1077 20.84C85.1077 21.8 85.2977 22.65 85.6777 23.39C86.0777 24.13 86.6177 24.71 87.2977 25.13C87.9977 25.55 88.7777 25.76 89.6377 25.76ZM108.481 29.18C106.641 29.18 105.211 28.68 104.191 27.68C103.191 26.66 102.691 25.23 102.691 23.39V16.19H99.8709V12.68H100.171C100.971 12.68 101.591 12.47 102.031 12.05C102.471 11.63 102.691 11.02 102.691 10.22V8.96H106.621V12.68H110.371V16.19H106.621V23.18C106.621 23.72 106.711 24.18 106.891 24.56C107.091 24.94 107.391 25.23 107.791 25.43C108.211 25.63 108.741 25.73 109.381 25.73C109.521 25.73 109.681 25.72 109.861 25.7C110.061 25.68 110.251 25.66 110.431 25.64V29C110.151 29.04 109.831 29.08 109.471 29.12C109.111 29.16 108.781 29.18 108.481 29.18ZM121.027 29.36C119.347 29.36 117.877 28.98 116.617 28.22C115.357 27.46 114.377 26.43 113.677 25.13C112.977 23.83 112.627 22.39 112.627 20.81C112.627 19.17 112.977 17.72 113.677 16.46C114.397 15.18 115.367 14.17 116.587 13.43C117.827 12.69 119.207 12.32 120.727 12.32C122.007 12.32 123.127 12.53 124.087 12.95C125.067 13.37 125.897 13.95 126.577 14.69C127.257 15.43 127.777 16.28 128.137 17.24C128.497 18.18 128.677 19.2 128.677 20.3C128.677 20.58 128.657 20.87 128.617 21.17C128.597 21.47 128.547 21.73 128.467 21.95H115.867V18.95H126.247L124.387 20.36C124.567 19.44 124.517 18.62 124.237 17.9C123.977 17.18 123.537 16.61 122.917 16.19C122.317 15.77 121.587 15.56 120.727 15.56C119.907 15.56 119.177 15.77 118.537 16.19C117.897 16.59 117.407 17.19 117.067 17.99C116.747 18.77 116.627 19.72 116.707 20.84C116.627 21.84 116.757 22.73 117.097 23.51C117.457 24.27 117.977 24.86 118.657 25.28C119.357 25.7 120.157 25.91 121.057 25.91C121.957 25.91 122.717 25.72 123.337 25.34C123.977 24.96 124.477 24.45 124.837 23.81L128.017 25.37C127.697 26.15 127.197 26.84 126.517 27.44C125.837 28.04 125.027 28.51 124.087 28.85C123.167 29.19 122.147 29.36 121.027 29.36ZM129.893 29L135.593 20.81L129.863 12.68H134.483L138.953 19.28H136.883L141.353 12.68H145.943L140.243 20.81L145.913 29H141.323L136.913 22.43H138.923L134.513 29H129.893Z" fill="white"></path></svg>